<?xml version="1.0" encoding="UTF-8" standalone="no"?>
<!DOCTYPE svg PUBLIC "-//W3C//DTD SVG 1.1//EN" "http://www.w3.org/Graphics/SVG/1.1/DTD/svg11.dtd">
<svg width="400" height="93" viewBox="0 0 138 32" xmlns="http://www.w3.org/2000/svg" xmlns:xlink="http://www.w3.org/1999/xlink">
    <path fill="#203468" style="fill: var(--color1, #203468)" d="M59.15 3.052h0.221v25.896h-0.221v-25.896z"></path>
    <path fill="#e37325" style="fill: var(--color2, #e37325)" d="M7.758 15.071h0.968v4.609h-0.968v-4.609z"></path>
    <path fill="#e37325" style="fill: var(--color2, #e37325)" d="M2.533 15.071h0.937v4.609h-0.937v-4.609z"></path>
    <path fill="#e37325" style="fill: var(--color2, #e37325)" d="M3.792 15.071h0.999v4.609h-0.999v-4.609z"></path>
    <path fill="#e37325" style="fill: var(--color2, #e37325)" d="M5.114 15.071h0.999v4.609h-0.999v-4.609z"></path>
    <path fill="#e37325" style="fill: var(--color2, #e37325)" d="M6.436 15.071h0.999v4.609h-0.999v-4.609z"></path>
    <path fill="#e37325" style="fill: var(--color2, #e37325)" d="M8.31 14.745h-5.383l2.763-1.7 2.62 1.7z"></path>
    <path fill="#e37325" style="fill: var(--color2, #e37325)" d="M2.307 14.745h-2.306v-1.717h5.098l-2.792 1.717z"></path>
    <path fill="#e37325" style="fill: var(--color2, #e37325)" d="M6.26 13.027h4.966v1.717h-2.32l-2.646-1.717z"></path>
    <path fill="#e37325" style="fill: var(--color2, #e37325)" d="M10.516 12.702h-9.804c0.97-1.743 2.8-2.902 4.902-2.902s3.932 1.16 4.887 2.874z"></path>
    <path fill="#e37325" style="fill: var(--color2, #e37325)" d="M0.756 18.366l-0.084 0.259 0.219-0.159 0.22 0.159-0.084-0.258 0.219-0.159h-0.271l-0.084-0.258-0.084 0.258h-0.272zM0 16.9l0.22 0.163-0.084 0.258 0.219-0.159 0.219 0.159-0.083-0.258 0.219-0.159h-0.273l-0.084-0.258-0.083 0.255h-0.271zM2.21 19.679h-0.297l-0.083-0.256 0.219-0.159h-0.271l-0.084-0.258-0.084 0.258h-0.272l0.22 0.159-0.084 0.256h-1.475v-3.779l0.207-0.15 0.219 0.159-0.083-0.259 0.219-0.159h-0.271l-0.084-0.258-0.039 0.117-0.053 0.141h-0.116v-0.42h2.21v4.609zM1.911 19.679h-0.434l0.217-0.157zM0 15.866v-0.268l0.063 0.047-0.047 0.144z"></path>
    <path fill="#e37325" style="fill: var(--color2, #e37325)" d="M0.001 20.005h2.209v1.224h-2.209v-1.224z"></path>
    <path fill="#e37325" style="fill: var(--color2, #e37325)" d="M9.048 20.005h2.178v1.224h-2.178v-1.224z"></path>
    <path fill="#e37325" style="fill: var(--color2, #e37325)" d="M7.125 20.869l0.22-0.159h-0.271l-0.084-0.258-0.084 0.258h-0.271l0.219 0.159-0.082 0.256 0.219-0.159 0.219 0.159zM5.487 21.040l-0.063 0.188h-2.893v-1.223h0.357l-0.063 0.191h-0.271l0.22 0.159-0.084 0.258 0.219-0.159 0.219 0.159-0.084-0.258 0.219-0.159h-0.271l-0.063-0.191h5.375l-0.063 0.191h-0.271l0.219 0.159-0.084 0.258 0.219-0.159 0.219 0.159-0.084-0.258 0.22-0.159h-0.271l-0.063-0.191h0.375v1.224h-2.906l-0.063-0.188 0.219-0.159h-0.27l-0.081-0.257-0.084 0.258h-0.274zM4.076 20.869l-0.084 0.256 0.219-0.159 0.219 0.159-0.084-0.258 0.219-0.159h-0.271l-0.084-0.258-0.086 0.26h-0.269zM5.75 21.228h-0.25l0.125-0.090z"></path>
    <path fill="#e37325" style="fill: var(--color2, #e37325)" d="M10.486 18.366l0.22-0.159h-0.269l-0.084-0.258-0.084 0.258h-0.271l0.219 0.159-0.087 0.259 0.219-0.159 0.219 0.159zM9.768 19.678l-0.084-0.256 0.22-0.159h-0.271l-0.084-0.258-0.084 0.258h-0.271l0.219 0.159-0.083 0.256 0.219-0.157 0.217 0.157zM11.227 19.678h-2.179v-4.607h2.178v0.42h-0.107l-0.084-0.258-0.084 0.258h-0.271l0.219 0.159-0.087 0.258 0.219-0.159 0.191 0.139v1.013h-0.256l-0.084-0.258-0.084 0.258h-0.271l0.221 0.163-0.084 0.258 0.219-0.159 0.219 0.159-0.082-0.258 0.204-0.148v2.768zM11.227 15.609v0.211l-0.056-0.171z"></path>
    <path fill="#203468" style="fill: var(--color1, #203468)" d="M15.675 16.051c0.791 0 1.345-0.209 1.709-0.546 0.509-0.438 0.709-1.009 0.764-1.754 0.027-0.354 0.046-1.945 0.046-2.072s0-1.418 0.018-1.509c0.027-0.109 0.054-0.364 0.391-0.364h0.375c0.046 0 0.054-0.036 0.054-0.091v-0.2c0-0.027-0.009-0.063-0.091-0.063s-0.375 0.027-1 0.027c-0.609 0-1.027-0.027-1.118-0.027-0.004-0.001-0.008-0.002-0.013-0.002-0.028 0-0.051 0.023-0.051 0.051 0 0.005 0.001 0.009 0.002 0.013l-0 0.218c0 0.046 0.009 0.072 0.063 0.072h0.4c0.236 0 0.382 0.164 0.409 0.4s0.046 0.754 0.046 1.445v1.945c0 0.672-0.118 1.218-0.473 1.6-0.318 0.328-0.846 0.5-1.363 0.5s-1.109-0.164-1.445-0.654c-0.209-0.309-0.282-0.736-0.291-1.154-0.009-0.291-0.046-1.445-0.046-1.927v-0.6c0-0.464 0.009-1.1 0.018-1.182 0.018-0.2 0.172-0.375 0.438-0.375h0.454c0.063 0 0.072-0.018 0.072-0.063v-0.236c0-0.036-0.009-0.054-0.082-0.054-0.1 0-0.536 0.027-1.245 0.027s-1.154-0.027-1.245-0.027c-0.072 0-0.082 0.018-0.082 0.072v0.2c0 0.063 0.009 0.082 0.063 0.082h0.424c0.282 0 0.346 0.146 0.346 0.464v2.163c0 1.191 0.036 1.8 0.146 2.209 0.146 0.572 0.464 0.973 1.082 1.218 0.302 0.129 0.754 0.193 1.227 0.193z"></path>
    <path fill="#203468" style="fill: var(--color1, #203468)" d="M23.137 12.918c0-0.405-0.020-1.027 0.029-1.481 0.020-0.138 0.069-0.207 0.316-0.207h0.099c0.033-0.002 0.060-0.029 0.060-0.062 0-0.002-0-0.005-0-0.007l0-0.207c0-0.059-0.020-0.079-0.069-0.079-0.069 0-0.415 0.029-0.625 0.029-0.316 0-0.741-0.029-0.813-0.029-0.049 0-0.069 0.020-0.069 0.049v0.237c-0.001 0.004-0.001 0.008-0.001 0.012 0 0.032 0.026 0.059 0.059 0.059 0.004 0 0.008-0 0.012-0.001l0.168 0c0.168 0 0.316 0.059 0.366 0.178s0.082 0.692 0.082 0.929c0.020 0.316 0.029 0.625 0.029 1.188v0.652h-0.039c-0.119-0.128-1.037-1.284-1.214-1.491-0.207-0.25-1.343-1.679-1.375-1.718-0.039-0.059-0.099-0.079-0.237-0.079-0.119 0-0.326 0.020-0.484 0.020-0.109 0-0.267-0.010-0.395-0.020-0.128 0-0.237-0.010-0.257-0.010-0.001-0-0.002-0-0.003-0-0.031 0-0.057 0.025-0.057 0.057 0 0.001 0 0.002 0 0.003v0.237c-0 0.002-0.001 0.005-0.001 0.007 0 0.029 0.023 0.053 0.052 0.053 0.003 0 0.005-0 0.008-0.001l0.088 0c0.276 0 0.523 0.168 0.523 0.523v1.037c0 1.116-0.020 1.817-0.029 1.938-0.029 0.227-0.188 0.296-0.286 0.296h-0.227c-0.029 0-0.039 0.010-0.039 0.029v0.257c0 0.049 0.010 0.069 0.029 0.069 0.079 0 0.523-0.029 0.662-0.029 0.286 0 0.681 0.029 0.75 0.029 0.049 0 0.049-0.020 0.049-0.059v-0.237c0-0.039 0-0.059-0.049-0.059h-0.207c-0.099 0-0.207-0.109-0.237-0.336-0.020-0.089-0.059-1.076-0.059-1.669v-1.358h0.020c0.158 0.178 0.958 1.244 1.195 1.521 0.109 0.128 0.533 0.632 0.988 1.175 0.405 0.484 0.741 0.889 0.813 0.958 0.062 0.052 0.14 0.087 0.225 0.098 0.121 0 0.15-0.098 0.15-0.187v-2.313z"></path>
    <path fill="#203468" style="fill: var(--color1, #203468)" d="M25.483 12.819c0-0.069 0.010-1.244 0.010-1.343 0.010-0.207 0.099-0.25 0.366-0.25h0.168c0.002 0 0.004 0 0.006 0 0.031 0 0.056-0.025 0.056-0.056 0-0.005-0.001-0.010-0.002-0.014l0-0.236c0-0 0-0 0-0 0-0.028-0.022-0.050-0.050-0.050-0.003 0-0.007 0-0.010 0.001-0.078-0-0.582 0.029-0.868 0.029-0.464 0.010-1.076-0.029-1.136-0.029-0.002-0-0.005-0.001-0.007-0.001-0.029 0-0.052 0.024-0.052 0.053 0 0.003 0 0.005 0.001 0.008l-0 0.227c-0.001 0.004-0.002 0.009-0.002 0.014 0 0.031 0.025 0.056 0.056 0.056 0.002 0 0.004-0 0.006-0l0.177 0c0.415 0 0.504 0.099 0.504 0.207 0 0.138 0.020 1.125 0.020 1.284v0.438c0 0.336-0.010 1.59-0.020 1.679-0.020 0.178-0.177 0.188-0.424 0.188h-0.216c-0.001-0-0.002-0-0.003-0-0.031 0-0.057 0.025-0.057 0.057 0 0.001 0 0.002 0 0.003v0.217c-0.001 0.005-0.002 0.010-0.002 0.015 0 0.034 0.027 0.062 0.061 0.063 0.059 0 0.632-0.029 0.968-0.029 0.444 0 0.958 0.029 1.037 0.029 0.002 0 0.004 0 0.006 0 0.031 0 0.056-0.025 0.056-0.056 0-0.005-0.001-0.010-0.002-0.014l0-0.236c0-0.029-0.010-0.049-0.059-0.049h-0.148c-0.286 0-0.405-0.138-0.424-0.366-0.010-0.148-0.010-1.284-0.010-1.343v-0.494z"></path>
    <path fill="#203468" style="fill: var(--color1, #203468)" d="M35.494 13.095c-0.010 0.603 0 1.188-0.010 1.669 0 0.217-0.119 0.257-0.356 0.257h-0.119c-0.003-0.001-0.006-0.001-0.009-0.001-0.028 0-0.050 0.022-0.050 0.050 0 0 0 0 0 0v0.227c-0.001 0.005-0.002 0.010-0.002 0.016 0 0.034 0.027 0.062 0.061 0.063 0.069 0 0.573-0.029 0.819-0.029 0.326 0 0.859 0.029 0.928 0.029 0.059 0 0.079-0.020 0.079-0.069v-0.237c0-0 0-0 0-0 0-0.028-0.022-0.050-0.050-0.050-0.003 0-0.007 0-0.010 0.001l-0.257-0c-0.197 0-0.257-0.109-0.276-0.25v-1.299c0.062-0.014 0.133-0.021 0.206-0.021 0.018 0 0.036 0 0.054 0.001 0.413-0 0.56 0.217 0.916 0.829 0.089 0.148 0.523 0.948 0.711 1.086 0.168-0.010 0.405-0.020 0.632-0.020 0.099 0 0.218 0.010 0.306 0.010 0.099 0.010 0.178 0.020 0.197 0.020 0.033-0.002 0.060-0.029 0.060-0.062 0-0.002-0-0.005-0-0.007l0-0.197c0-0.059-0.010-0.089-0.049-0.089-0.178 0-0.306-0.010-0.444-0.109-0.188-0.138-0.415-0.438-0.553-0.632-0.405-0.572-0.602-0.879-0.829-0.928v-0.020c0.78-0.276 1.165-0.671 1.165-1.353 0-0.227-0.128-0.514-0.346-0.721-0.25-0.217-0.691-0.385-1.284-0.385-0.128 0-0.987 0.029-1.106 0.029-0.178 0-0.79-0.029-0.839-0.029-0.003-0.001-0.006-0.001-0.009-0.001-0.028 0-0.050 0.022-0.050 0.050 0 0 0 0 0 0v0.237c0 0.039 0.010 0.069 0.039 0.069h0.099c0.276 0 0.366 0.109 0.375 0.306v1.563zM36.244 11.408c0-0.178 0.148-0.217 0.296-0.217 0.016-0.001 0.035-0.001 0.054-0.001 0.328 0 0.633 0.096 0.889 0.262 0.171 0.115 0.319 0.381 0.319 0.677 0 0.257-0.168 1.027-1.264 1.027-0.002 0-0.005 0-0.008 0-0.102 0-0.202-0.007-0.3-0.021l0.011-1.727z"></path>
    <path fill="#203468" style="fill: var(--color1, #203468)" d="M41 15.466c0.899 0 1.375-0.632 1.375-1.375 0-0.494-0.119-0.741-0.316-0.948-0.25-0.257-0.612-0.366-1.066-0.533-0.188-0.069-0.543-0.217-0.691-0.405-0.099-0.133-0.158-0.3-0.158-0.482 0-0.001 0-0.002 0-0.002 0-0.177 0.158-0.602 0.701-0.602 0.286 0 0.504 0.099 0.652 0.267 0.208 0.237 0.286 0.582 0.346 0.701 0.003 0.023 0.023 0.041 0.047 0.041 0.005 0 0.009-0.001 0.013-0.002l0.177-0.039c0.023-0.007 0.040-0.028 0.040-0.052 0-0.002-0-0.005-0-0.007-0.010-0.138-0.099-0.78-0.099-1.106 0.001-0.005 0.002-0.010 0.002-0.016 0-0.041-0.033-0.074-0.074-0.074-0.006 0-0.011 0.001-0.017 0.002-0.078-0-0.108-0-0.128 0.029l-0.039 0.069c-0.020 0.049-0.069 0.039-0.168-0.020-0.119-0.059-0.326-0.128-0.701-0.128-0.356 0-0.671 0.089-0.928 0.296-0.218 0.188-0.424 0.494-0.424 0.829 0 0.484 0.119 0.8 0.346 1.017 0.296 0.267 0.77 0.444 0.968 0.514 0.523 0.197 0.909 0.444 0.909 1.008 0 0.424-0.474 0.671-0.79 0.671-0.005 0-0.010 0-0.016 0-0.355 0-0.663-0.198-0.821-0.489-0.114-0.188-0.18-0.41-0.18-0.648 0-0.010 0-0.020 0-0.030-0.007-0.037-0.039-0.066-0.079-0.068l-0.178-0.020c-0 0-0 0-0.001 0-0.041 0-0.074 0.033-0.074 0.074 0 0 0 0 0 0-0.010 0.158-0.079 0.948-0.109 1.224-0.001 0.005-0.001 0.010-0.001 0.015 0 0.047 0.034 0.086 0.079 0.094 0.079 0.020 0.129 0 0.149-0.049l0.029-0.079c0.020-0.079 0.079-0.069 0.148-0.020 0.228 0.175 0.574 0.343 1.079 0.343z"></path>
    <path fill="#203468" style="fill: var(--color1, #203468)" d="M44.043 12.819c0-0.069 0.010-1.244 0.010-1.343 0.010-0.207 0.099-0.25 0.366-0.25h0.168c0.002 0 0.004 0 0.006 0 0.031 0 0.056-0.025 0.056-0.056 0-0.005-0.001-0.010-0.002-0.014l0-0.236c0-0 0-0 0-0 0-0.028-0.022-0.050-0.050-0.050-0.003 0-0.007 0-0.010 0.001-0.078-0-0.582 0.029-0.868 0.029-0.464 0.010-1.076-0.029-1.136-0.029-0.002-0-0.005-0.001-0.007-0.001-0.029 0-0.053 0.024-0.053 0.053 0 0.003 0 0.005 0.001 0.008l-0 0.227c-0.001 0.004-0.002 0.009-0.002 0.014 0 0.031 0.025 0.056 0.056 0.056 0.002 0 0.004-0 0.006-0l0.177 0c0.415 0 0.504 0.099 0.504 0.207 0 0.138 0.020 1.125 0.020 1.284v0.438c0 0.336-0.010 1.59-0.020 1.679-0.020 0.178-0.178 0.188-0.424 0.188h-0.218c-0.001-0-0.002-0-0.003-0-0.031 0-0.057 0.025-0.057 0.057 0 0.001 0 0.002 0 0.003v0.217c-0.001 0.005-0.002 0.010-0.002 0.016 0 0.034 0.027 0.062 0.061 0.063 0.059 0 0.632-0.029 0.968-0.029 0.444 0 0.958 0.029 1.037 0.029 0.002 0 0.004 0 0.006 0 0.031 0 0.056-0.025 0.056-0.056 0-0.005-0.001-0.010-0.002-0.014l0-0.236c0-0.029-0.010-0.049-0.059-0.049h-0.148c-0.286 0-0.405-0.138-0.424-0.366-0.010-0.148-0.010-1.284-0.010-1.343v-0.494z"></path>
    <path fill="#203468" style="fill: var(--color1, #203468)" d="M17.566 18.512c0.906 0 1.45-1.244 1.45-1.931 0-0.425-0.25-0.731-0.669-0.731-0.831 0-1.425 1.069-1.425 1.856 0 0.475 0.3 0.806 0.644 0.806zM17.473 18.212c-0.15 0-0.288-0.119-0.288-0.319 0-0.294 0.15-0.675 0.363-1.012 0.313-0.506 0.644-0.744 0.906-0.744 0.206 0 0.319 0.156 0.313 0.35-0.001 0.413-0.641 1.725-1.294 1.725z"></path>
    <path fill="#203468" style="fill: var(--color1, #203468)" d="M27.861 18.671c0-0.069 0.010-1.244 0.010-1.343 0.010-0.207 0.099-0.25 0.366-0.25h0.168c0.002 0 0.004 0 0.006 0 0.031 0 0.056-0.025 0.056-0.056 0-0.005-0.001-0.010-0.002-0.014l0-0.236c0-0 0-0 0-0 0-0.028-0.022-0.050-0.050-0.050-0.003 0-0.007 0-0.010 0.001-0.078-0-0.582 0.029-0.868 0.029-0.464 0.010-1.076-0.029-1.136-0.029-0.002-0-0.005-0.001-0.007-0.001-0.029 0-0.052 0.023-0.052 0.052 0 0.003 0 0.005 0.001 0.008l-0 0.227c-0.001 0.004-0.002 0.009-0.002 0.014 0 0.031 0.025 0.056 0.056 0.056 0.002 0 0.004-0 0.006-0l0.177 0c0.415 0 0.504 0.099 0.504 0.207 0 0.138 0.020 1.125 0.020 1.284v0.438c0 0.336-0.010 1.59-0.020 1.679-0.020 0.177-0.177 0.188-0.424 0.188h-0.219c-0.001-0-0.002-0-0.003-0-0.031 0-0.057 0.025-0.057 0.057 0 0.001 0 0.002 0 0.003v0.217c-0.001 0.005-0.002 0.010-0.002 0.016 0 0.034 0.027 0.062 0.061 0.063 0.059 0 0.632-0.029 0.968-0.029 0.444 0 0.958 0.029 1.037 0.029 0.002 0 0.004 0 0.006 0 0.031 0 0.056-0.025 0.056-0.056 0-0.005-0.001-0.010-0.002-0.014l0-0.236c0-0.029-0.010-0.049-0.059-0.049h-0.148c-0.286 0-0.405-0.138-0.424-0.366-0.010-0.148-0.010-1.284-0.010-1.343v-0.494z"></path>
    <path fill="#203468" style="fill: var(--color1, #203468)" d="M29.297 18.947c-0.010 0.602 0 1.188-0.010 1.669 0 0.218-0.119 0.257-0.356 0.257h-0.119c-0.003-0.001-0.006-0.001-0.009-0.001-0.028 0-0.050 0.022-0.050 0.050 0 0 0 0 0 0v0.227c-0.001 0.005-0.002 0.010-0.002 0.016 0 0.034 0.027 0.062 0.061 0.063 0.069 0 0.573-0.029 0.819-0.029 0.326 0 0.859 0.029 0.928 0.029 0.059 0 0.079-0.020 0.079-0.069v-0.237c0-0 0-0 0-0 0-0.028-0.022-0.050-0.050-0.050-0.003 0-0.007 0-0.010 0.001l-0.257-0c-0.198 0-0.257-0.109-0.276-0.25v-1.299c0.062-0.014 0.133-0.021 0.206-0.021 0.018 0 0.036 0 0.054 0.001 0.413-0 0.56 0.217 0.916 0.829 0.089 0.148 0.523 0.948 0.711 1.086 0.168-0.010 0.405-0.020 0.632-0.020 0.099 0 0.218 0.010 0.306 0.010 0.099 0.010 0.178 0.020 0.197 0.020 0.033-0.002 0.060-0.029 0.060-0.062 0-0.002-0-0.005-0-0.007l0-0.197c0-0.059-0.010-0.089-0.049-0.089-0.178 0-0.306-0.010-0.444-0.109-0.188-0.138-0.415-0.438-0.553-0.632-0.405-0.573-0.602-0.879-0.829-0.928v-0.020c0.78-0.276 1.165-0.671 1.165-1.353 0-0.227-0.128-0.514-0.346-0.721-0.25-0.218-0.691-0.385-1.284-0.385-0.128 0-0.988 0.029-1.106 0.029-0.177 0-0.79-0.029-0.839-0.029-0.003-0.001-0.006-0.001-0.009-0.001-0.028 0-0.050 0.022-0.050 0.050 0 0 0 0 0 0v0.237c0 0.039 0.010 0.069 0.039 0.069h0.099c0.276 0 0.366 0.109 0.375 0.306v1.563zM30.104 17.259c0-0.177 0.148-0.218 0.296-0.218 0.016-0.001 0.035-0.001 0.055-0.001 0.328 0 0.633 0.096 0.889 0.262 0.171 0.115 0.319 0.381 0.319 0.677 0 0.257-0.168 1.027-1.264 1.027-0.002 0-0.005 0-0.008 0-0.102 0-0.202-0.007-0.3-0.021l0.011-1.727z"></path>
    <path fill="#203468" style="fill: var(--color1, #203468)" d="M36.826 19.856c0-0.168 0.188-0.207 0.286-0.207h0.168c0.028-0.003 0.050-0.026 0.050-0.055 0-0.002-0-0.003-0-0.005v-0.237c0-0 0-0 0-0 0-0.028-0.022-0.050-0.050-0.050-0.003 0-0.007 0-0.010 0.001-0.039-0-0.483 0.020-0.849 0.020-0.533 0-1.017-0.020-1.076-0.020-0.002-0-0.005-0.001-0.008-0.001-0.023 0-0.042 0.019-0.042 0.043 0 0.003 0 0.005 0.001 0.008l-0 0.237c-0 0.002-0.001 0.005-0.001 0.008 0 0.023 0.019 0.043 0.042 0.043 0.003 0 0.005-0 0.008-0.001l0.237 0c0.257 0 0.484 0.069 0.484 0.296v0.366c0 0.198-0.020 0.326-0.148 0.424-0.158 0.128-0.474 0.218-0.819 0.218-0.276 0-0.671-0.148-0.948-0.444-0.385-0.405-0.602-0.968-0.602-1.728 0-0.444 0.218-0.968 0.514-1.294 0.366-0.395 0.75-0.504 1.057-0.504 0.454 0 0.731 0.198 1 0.474 0.191 0.199 0.35 0.431 0.467 0.686 0.036 0.094 0.056 0.104 0.085 0.094l0.188-0.059c0.029-0.010 0.039-0.029 0.039-0.079-0.023-0.177-0.148-1.096-0.148-1.145 0-0.069-0.020-0.109-0.109-0.109-0.005-0.001-0.010-0.001-0.016-0.001-0.049 0-0.092 0.028-0.112 0.070l-0.050 0.089c-0.020 0.029-0.059 0.029-0.138-0.039-0.188-0.138-0.652-0.316-1.125-0.316-0.701 0-1.304 0.207-1.767 0.602-0.449 0.398-0.73 0.976-0.731 1.619 0 0.77 0.197 1.304 0.593 1.738 0.464 0.514 1.254 0.721 1.767 0.721 0.007 0 0.016 0 0.024 0 0.607 0 1.179-0.146 1.684-0.405 0.049-0.020 0.088-0.050 0.088-0.099s-0.029-0.109-0.029-0.198v-0.76z"></path>
    <path fill="#203468" style="fill: var(--color1, #203468)" d="M38.637 18.671c0-0.069 0.010-1.244 0.010-1.343 0.010-0.207 0.099-0.25 0.366-0.25h0.168c0.002 0 0.004 0 0.006 0 0.031 0 0.056-0.025 0.056-0.056 0-0.005-0.001-0.010-0.002-0.014l0-0.236c0-0 0-0 0-0 0-0.028-0.022-0.050-0.050-0.050-0.003 0-0.007 0-0.010 0.001-0.078-0-0.582 0.029-0.868 0.029-0.464 0.010-1.076-0.029-1.136-0.029-0.002-0-0.005-0.001-0.007-0.001-0.029 0-0.053 0.023-0.053 0.052 0 0.003 0 0.005 0.001 0.008l-0 0.227c-0.001 0.004-0.002 0.009-0.002 0.014 0 0.031 0.025 0.056 0.056 0.056 0.002 0 0.004-0 0.006-0l0.177 0c0.415 0 0.504 0.099 0.504 0.207 0 0.138 0.020 1.125 0.020 1.284v0.438c0 0.336-0.010 1.59-0.020 1.679-0.020 0.177-0.178 0.188-0.424 0.188h-0.218c-0.001-0-0.002-0-0.003-0-0.031 0-0.057 0.025-0.057 0.057 0 0.001 0 0.002 0 0.003v0.217c-0.001 0.005-0.002 0.010-0.002 0.016 0 0.034 0.027 0.062 0.061 0.063 0.059 0 0.632-0.029 0.968-0.029 0.444 0 0.958 0.029 1.037 0.029 0.002 0 0.004 0 0.006 0 0.031 0 0.056-0.025 0.056-0.056 0-0.005-0.001-0.010-0.002-0.014l0-0.236c0-0.029-0.010-0.049-0.059-0.049h-0.148c-0.286 0-0.405-0.138-0.424-0.366-0.010-0.148-0.010-1.284-0.010-1.343v-0.494z"></path>
    <path fill="#203468" style="fill: var(--color1, #203468)" d="M43.974 18.769c0-0.405-0.020-1.027 0.029-1.481 0.020-0.138 0.069-0.207 0.316-0.207h0.099c0.033-0.002 0.060-0.029 0.060-0.062 0-0.002-0-0.005-0-0.007l0-0.207c0-0.059-0.020-0.079-0.069-0.079-0.069 0-0.415 0.029-0.625 0.029-0.316 0-0.741-0.029-0.813-0.029-0.049 0-0.069 0.020-0.069 0.049v0.237c-0.001 0.004-0.001 0.008-0.001 0.012 0 0.032 0.026 0.059 0.059 0.059 0.004 0 0.008-0 0.012-0.001l0.168 0c0.168 0 0.316 0.059 0.366 0.177s0.079 0.691 0.079 0.928c0.020 0.316 0.029 0.625 0.029 1.188v0.652h-0.039c-0.119-0.128-1.037-1.284-1.214-1.491-0.208-0.25-1.343-1.679-1.375-1.718-0.039-0.059-0.099-0.079-0.237-0.079-0.119 0-0.326 0.020-0.484 0.020-0.109 0-0.267-0.010-0.395-0.020-0.128 0-0.237-0.010-0.257-0.010-0.001-0-0.002-0-0.003-0-0.031 0-0.057 0.025-0.057 0.057 0 0.001 0 0.002 0 0.003v0.237c-0 0.002-0.001 0.005-0.001 0.007 0 0.029 0.023 0.052 0.053 0.052 0.003 0 0.005-0 0.008-0.001l0.088 0c0.276 0 0.523 0.168 0.523 0.523v1.037c0 1.116-0.020 1.817-0.029 1.938-0.029 0.227-0.188 0.296-0.286 0.296h-0.221c-0.029 0-0.039 0.010-0.039 0.029v0.257c0 0.049 0.010 0.069 0.029 0.069 0.079 0 0.523-0.029 0.662-0.029 0.286 0 0.681 0.029 0.75 0.029 0.049 0 0.049-0.020 0.049-0.059v-0.237c0-0.039 0-0.059-0.049-0.059h-0.208c-0.099 0-0.208-0.109-0.237-0.336-0.020-0.089-0.059-1.076-0.059-1.669v-1.358h0.020c0.158 0.177 0.958 1.244 1.195 1.521 0.109 0.128 0.533 0.632 0.987 1.175 0.405 0.484 0.741 0.889 0.813 0.958 0.062 0.052 0.139 0.087 0.225 0.099 0.121 0 0.15-0.099 0.15-0.187v-2.313z"></path>
    <path fill="#203468" style="fill: var(--color1, #203468)" d="M19.713 16.188h-0.556c-0.031 0-0.046-0.031-0.034-0.074l0.025-0.106c0.012-0.044 0.056-0.144 0.106-0.144h0.544c0.188-0.537 0.369-0.975 0.701-1.344 0.229-0.255 0.558-0.416 0.923-0.425 0.364-0 0.564 0.219 0.564 0.369 0 0.194-0.125 0.287-0.25 0.287-0.2 0-0.256-0.113-0.275-0.25-0.006-0.063-0.069-0.181-0.256-0.181-0.581 0-0.707 0.826-0.913 1.526 0 0 0.869 0.023 1.578 0.023 0.764 0 1.172-0.027 1.254-0.027s0.091 0.027 0.091 0.063v0.209c0.001 0.005 0.002 0.011 0.002 0.017 0 0.036-0.029 0.066-0.066 0.066-0.003 0-0.006-0-0.009-0.001l-0.437 0c-0.254 0-0.382 0.082-0.382 0.236 0.002 0.11 0.015 0.217 0.038 0.319 0.052 0.317 0.389 1.398 0.552 1.908 0.109 0.346 0.636 1.909 0.846 2.463 0.209-0.427 0.918-2.299 0.991-2.509 0.091-0.246 0.438-1.291 0.573-1.688 0.073-0.227 0.125-0.391 0.125-0.518 0-0.109-0.063-0.209-0.291-0.209h-0.236c-0.036 0-0.046-0.027-0.046-0.082v-0.209c0-0.046 0.009-0.063 0.054-0.063 0.082 0 0.5 0.027 1.073 0.027 0.664 0 0.891-0.027 0.973-0.027 0.004-0.001 0.008-0.002 0.013-0.002 0.028 0 0.051 0.023 0.051 0.051 0 0.005-0.001 0.009-0.002 0.013l0 0.227c0.001 0.003 0.001 0.006 0.001 0.010 0 0.030-0.024 0.054-0.054 0.054-0.003 0-0.007-0-0.010-0.001l-0.242 0c-0.3 0-0.473 0.146-0.646 0.354-0.236 0.291-0.964 2.154-1.118 2.536-0.109 0.3-1.282 3.188-1.327 3.281-0.036 0.073-0.082 0.118-0.125 0.118-0.073 0-0.109-0.091-0.154-0.209-0.291-0.836-1.027-2.909-1.145-3.236l-0.091-0.31c-0.218-0.646-0.646-1.963-0.764-2.236-0.091-0.209-0.182-0.3-0.375-0.3l-0.844-0.008c-0.163 0.506-0.45 1.576-0.762 2.375-0.381 0.975-0.825 1.669-1.494 1.669-0.25 0-0.45-0.169-0.45-0.369-0-0.002-0-0.004-0-0.006 0-0.145 0.118-0.263 0.263-0.263 0.002 0 0.004 0 0.006 0 0.181 0 0.275 0.175 0.293 0.281 0.006 0.056 0.050 0.1 0.106 0.106 0.3 0 0.638-0.525 0.976-1.681z"></path>
    <path fill="#203468" style="fill: var(--color1, #203468)" d="M45.133 10.859c0.013-0.009 0.009-0.009 0.038-0.006 0.154 0.017 0.714 0.069 1.799 0.069h0.395c0.322 0 0.671-0.013 1.047-0.029 0.188-0.006 1.349 0.009 1.586 0.009 0.218 0 0.889-0.029 0.958-0.029 0.002-0 0.005-0 0.007-0 0.035 0 0.063 0.028 0.063 0.063 0 0.003-0 0.005-0 0.008l0 0.217c0.001 0.004 0.001 0.008 0.001 0.013 0 0.032-0.026 0.058-0.058 0.058-0.004 0-0.009-0.001-0.013-0.001l-0.148 0c-0.178 0-0.188 0.109-0.148 0.168 0.059 0.089 0.879 1.402 1.037 1.639 0.148-0.25 0.968-1.442 1.008-1.521 0.079-0.158 0.089-0.286-0.128-0.286h-0.158c-0.002 0-0.005 0-0.007 0-0.035 0-0.063-0.028-0.063-0.063 0-0.003 0-0.005 0-0.008l-0-0.217c-0-0.002-0-0.005-0-0.007 0-0.035 0.028-0.063 0.063-0.063 0.003 0 0.005 0 0.008 0 0.059-0 0.553 0.029 0.849 0.029 0.178 0 0.523-0.029 0.583-0.029 0.049 0 0.069 0.020 0.069 0.079v0.207c0.001 0.004 0.002 0.009 0.002 0.014 0 0.031-0.025 0.056-0.056 0.056-0.002 0-0.004-0-0.006-0l-0.099 0c-0.009-0-0.020-0.001-0.031-0.001-0.119 0-0.23 0.029-0.328 0.081-0.144 0.077-1.29 1.686-1.517 2.033v0.829c0.010 0.25 0 0.514 0.020 0.632 0.020 0.207 0.178 0.217 0.356 0.217h0.128c0.049 0 0.069 0.020 0.069 0.049v0.237c0 0.001 0 0.003 0 0.004 0 0.036-0.029 0.066-0.066 0.066-0.006 0-0.012-0.001-0.017-0.002-0.059 0-0.612-0.029-0.937-0.029-0.218 0-0.79 0.029-0.849 0.029-0.049 0-0.069-0.020-0.069-0.079v-0.217c-0-0.001-0-0.002-0-0.003 0-0.031 0.025-0.057 0.057-0.057 0.001 0 0.002 0 0.003 0h0.148c0.316 0 0.375-0.059 0.385-0.197 0.010-0.089 0.010-0.444 0.010-1.027v-0.356c-0.089-0.178-1.294-1.946-1.452-2.094-0.084-0.070-0.193-0.114-0.312-0.117 0.058 0.268 0.137 0.618 0.169 0.788 0.002 0.005 0.002 0.011 0.002 0.017 0 0.031-0.022 0.056-0.051 0.062l-0.169 0.049c-0.059 0.020-0.089 0.010-0.109-0.039-0.119-0.25-0.286-0.572-0.494-0.761-0.25-0.089-0.969-0.099-1.147-0.099v1.659c0 1.037 0 1.777 0.010 1.856 0.020 0.158 0.069 0.257 0.227 0.257h0.375c0.049 0 0.069 0.029 0.069 0.089v0.207c-0.002 0.033-0.029 0.060-0.062 0.060-0.002 0-0.005-0-0.007-0-0.069 0-0.681-0.029-1.007-0.029-0.276 0-0.918 0.029-1 0.029-0.059 0-0.079-0.029-0.079-0.089v-0.197c-0.001-0.004-0.002-0.009-0.002-0.014 0-0.031 0.025-0.056 0.056-0.056 0.002 0 0.004 0 0.006 0l0.395-0c0.148 0 0.218-0.079 0.227-0.158 0.029-0.375 0.029-0.899 0.029-1.491v-2.119c-0.188 0-0.742-0.010-1.108 0.089-0.25 0.188-0.454 0.504-0.583 0.761-0.020 0.039-0.049 0.069-0.089 0.049l-0.178-0.069c-0.027-0.011-0.047-0.037-0.047-0.067 0-0.011 0.003-0.022 0.007-0.032 0.057-0.179 0.229-0.788 0.309-1.087 0.002-0.015 0.011-0.027 0.023-0.034z"></path>
    <path fill="#203468" style="fill: var(--color1, #203468)" d="M48.369 19.174h1.343c-0.039-0.138-0.504-1.619-0.523-1.699-0.020-0.059-0.029-0.099-0.059-0.099s-0.049 0.029-0.079 0.109-0.633 1.59-0.682 1.689zM46.319 18.671v0.494c0 0.059 0 1.195 0.010 1.343 0.020 0.227 0.138 0.366 0.424 0.366h0.114c0.165-0.005 0.311-0.084 0.404-0.206 0.070-0.080 0.573-1.265 0.813-1.759 0.069-0.138 0.652-1.481 0.711-1.649 0.020-0.059 0.079-0.168 0.010-0.198-0.024-0.023-0.040-0.055-0.040-0.091 0-0.003 0-0.005 0-0.008-0.010-0.020 0.010-0.049 0.099-0.069 0.188-0.029 0.464-0.207 0.553-0.286 0.021-0.042 0.063-0.070 0.112-0.070 0.002 0 0.005 0 0.007 0 0.059 0 0.078 0.039 0.098 0.109 0.138 0.395 0.642 1.807 0.77 2.203 0.148 0.494 0.572 1.659 0.642 1.758 0.128 0.177 0.296 0.267 0.464 0.267h0.188c0 0 0.001 0 0.001 0 0.027 0 0.049 0.022 0.049 0.049 0 0.004-0 0.007-0.001 0.010l0 0.207c0.001 0.004 0.001 0.008 0.001 0.012 0 0.040-0.031 0.073-0.070 0.077-0.119 0-0.642-0.029-0.869-0.029-0.188 0-0.77 0.029-0.899 0.029-0.002 0-0.003 0-0.005 0-0.041 0-0.075-0.034-0.075-0.075 0-0.005 0-0.010 0.001-0.014l-0-0.207c-0.001-0.003-0.001-0.006-0.001-0.010 0-0.027 0.022-0.049 0.049-0.049 0 0 0.001 0 0.001 0h0.158c0.002 0 0.005 0 0.007 0 0.084 0 0.152-0.068 0.152-0.152 0-0.006-0-0.012-0.001-0.017-0.039-0.197-0.306-0.987-0.385-1.214h-1.594c-0.039 0.119-0.356 0.938-0.395 1.057-0.059 0.198-0.029 0.326 0.178 0.326h0.25c0.004-0.001 0.008-0.001 0.013-0.001 0.032 0 0.058 0.026 0.058 0.058 0 0.004-0.001 0.009-0.001 0.013l0 0.217c0.001 0.004 0.002 0.009 0.002 0.014 0 0.031-0.025 0.056-0.056 0.056-0.002 0-0.004-0-0.006-0-0.078 0-0.602-0.029-0.76-0.029h-1.638c-0.336 0-0.909 0.029-0.968 0.029-0.034-0.001-0.062-0.028-0.062-0.063 0-0.006 0.001-0.011 0.002-0.017l-0-0.217c-0-0.001-0-0.002-0-0.003 0-0.031 0.025-0.057 0.057-0.057 0.001 0 0.002 0 0.003 0h0.217c0.25 0 0.405-0.010 0.424-0.188 0.010-0.089 0.020-1.343 0.020-1.679v-0.438c0-0.158-0.020-1.146-0.020-1.284 0-0.109-0.089-0.207-0.504-0.207h-0.178c-0.002 0-0.004 0-0.006 0-0.031 0-0.056-0.025-0.056-0.056 0-0.005 0.001-0.010 0.002-0.014l-0-0.227c-0-0.002-0.001-0.005-0.001-0.007 0-0.029 0.023-0.052 0.053-0.052 0.003 0 0.005 0 0.008 0.001 0.059-0 0.671 0.039 1.135 0.029 0.286 0 0.79-0.029 0.869-0.029 0.003-0.001 0.006-0.001 0.009-0.001 0.028 0 0.050 0.022 0.050 0.050 0 0 0 0 0 0v0.237c0.001 0.004 0.002 0.009 0.002 0.014 0 0.031-0.025 0.056-0.056 0.056-0.002 0-0.004-0-0.006-0l-0.168 0c-0.267 0-0.356 0.039-0.366 0.25 0 0.098-0.009 1.273-0.009 1.342z"></path>
    <path fill="#203468" style="fill: var(--color1, #203468)" d="M28.291 10.943v0.227c-0.002 0.033-0.029 0.060-0.062 0.060-0.002 0-0.005-0-0.007-0l-0.227 0c-0.128 0-0.276 0.020-0.276 0.148 0 0.227 0.168 0.613 0.438 1.442 0.079 0.25 0.444 1.393 0.504 1.551h0.027c0.059-0.207 0.543-1.432 0.593-1.58 0.375-1.096 0.504-1.363 0.504-1.461 0-0.049-0.039-0.099-0.207-0.099h-0.109c-0.002 0-0.004 0-0.006 0-0.031 0-0.056-0.025-0.056-0.056 0-0.005 0.001-0.010 0.002-0.014l-0-0.226c-0-0.001-0-0.002-0-0.003 0-0.031 0.025-0.057 0.057-0.057 0.001 0 0.002 0 0.003 0 0.059 0 0.572 0.029 0.8 0.029h1.509l2.212-0.010c0.099 0 0.227-0.020 0.267-0.020 0.020 0 0.039 0.020 0.059 0.138 0.020 0.089 0.296 0.938 0.316 1.008 0.010 0.039 0.010 0.059-0.010 0.069l-0.158 0.069c-0.007 0.003-0.016 0.004-0.024 0.004-0.029 0-0.054-0.018-0.064-0.043-0.020-0.030-0.494-0.583-0.662-0.741-0.1-0.089-0.23-0.144-0.374-0.148l-1.048-0.020v1.679c0.059 0 0.642-0.029 0.721-0.049 0.257-0.069 0.356-0.207 0.356-0.514 0-0.039 0.010-0.049 0.049-0.049l0.218 0.010c0.039 0 0.069 0.020 0.059 0.059-0.020 0.089-0.020 0.613-0.020 0.701 0 0.217 0.029 0.523 0.039 0.652 0 0.002 0.001 0.005 0.001 0.008 0 0.023-0.019 0.043-0.042 0.043-0.003 0-0.005-0-0.008-0.001l-0.207 0.020c-0.004 0.001-0.008 0.002-0.013 0.002-0.024 0-0.044-0.018-0.047-0.041-0.049-0.25-0.109-0.405-0.366-0.465-0.209-0.044-0.45-0.070-0.696-0.070-0.016 0-0.031 0-0.047 0l0.002 0.336c0 0.346 0.020 0.918 0.020 1.047 0 0.464 0.286 0.494 0.711 0.494 0.438 0 0.711-0.010 1.047-0.276 0.079-0.059 0.424-0.504 0.523-0.662 0.049-0.069 0.099-0.079 0.128-0.059l0.158 0.089c0.019 0.011 0.031 0.031 0.031 0.054 0 0.005-0.001 0.011-0.002 0.016l-0.356 1.046c-0.017 0.049-0.058 0.086-0.108 0.099-0.070 0-0.594-0.029-2.667-0.029-0.177 0-0.721 0.029-0.839 0.029-0.002 0-0.004 0-0.006 0-0.031 0-0.056-0.025-0.056-0.056 0-0.005 0.001-0.010 0.002-0.014l-0-0.226c-0-0.002-0-0.004-0-0.006 0-0.031 0.025-0.056 0.056-0.056 0.005 0 0.010 0.001 0.014 0.002l0.088-0c0.464 0 0.494-0.039 0.494-0.178v-2.104c0-0.523-0.010-1.165-0.020-1.264-0.029-0.207-0.089-0.25-0.484-0.25h-0.236c-0.009-0.001-0.020-0.001-0.031-0.001-0.148 0-0.284 0.057-0.385 0.15-0.187 0.187-0.72 1.481-0.819 1.738-0.089 0.207-0.899 2.143-0.977 2.271-0.030 0.048-0.083 0.079-0.143 0.079-0.005 0-0.011-0-0.016-0.001-0.078 0-0.127-0.069-0.157-0.148-0.218-0.582-0.741-2.014-0.819-2.232l-0.067-0.215c-0.168-0.454-0.464-1.353-0.533-1.452-0.079-0.109-0.158-0.188-0.286-0.188h-0.099c-0 0-0.001 0-0.001 0-0.027 0-0.049-0.022-0.049-0.049 0-0.004 0-0.007 0.001-0.010l-0-0.25c0-0 0-0 0-0 0-0.028 0.022-0.050 0.050-0.050 0.003 0 0.007 0 0.010 0.001 0.049-0 0.592 0.029 0.849 0.029 0.237 0 0.839-0.029 0.899-0.029s0.076 0.023 0.076 0.072z"></path>
    <path fill="#203468" style="fill: var(--color1, #203468)" d="M67.621 16.99c0.009 0.528 0.029 1.487 0.029 1.663 0 0.509 0.176 0.704 0.391 0.763 0.208 0.050 0.447 0.079 0.693 0.079 0.025 0 0.050-0 0.074-0.001 0.173 0 0.621-0.020 0.818-0.039 0.176-0.020 0.547-0.118 0.802-0.333 0.176-0.156 0.724-0.802 0.909-1.037 0.039-0.049 0.069-0.059 0.108-0.039l0.156 0.098c0.019 0.013 0.031 0.035 0.031 0.059 0 0.014-0.004 0.028-0.012 0.039l-0.47 1.467c-0.027 0.086-0.105 0.147-0.198 0.147-0.006 0-0.012-0-0.018-0.001-0.047 0-0.263-0.009-0.869-0.019-0.616 0-1.625-0.010-3.257-0.010-0.362 0-0.625 0.010-0.831 0.010-0.196 0.009-0.333 0.019-0.421 0.019-0.005 0.002-0.012 0.003-0.018 0.003-0.035 0-0.063-0.028-0.063-0.063 0-0.007 0.001-0.013 0.003-0.019l-0-0.234c0-0.059 0.020-0.078 0.098-0.078h0.332c0.449 0 0.489-0.059 0.489-0.421v-3.287c0-0.803-0.020-2.015-0.039-2.152-0.039-0.264-0.136-0.342-0.431-0.342h-0.371c-0.001 0-0.003 0-0.005 0-0.031 0-0.056-0.025-0.056-0.056 0-0.005 0.001-0.009 0.002-0.013l-0-0.257c0-0.049 0.009-0.068 0.059-0.068 0.215 0 0.567 0.039 1.37 0.029h0.274c0.43 0 2.68-0.020 3.111-0.020 0.157 0 0.342-0.009 0.391-0.009 0.003-0.001 0.007-0.001 0.011-0.001 0.035 0 0.063 0.026 0.068 0.059 0.039 0.125 0.411 1.458 0.45 1.555 0.019 0.059 0.009 0.088-0.029 0.107l-0.176 0.078c-0.006 0.002-0.013 0.003-0.020 0.003-0.031 0-0.057-0.019-0.068-0.046-0.039-0.059-0.841-0.959-1.076-1.096-0.206-0.117-0.469-0.244-0.743-0.255l-1.487-0.039-0.021 2.827c0.294 0 1-0.020 1.116-0.049 0.215-0.039 0.332-0.117 0.449-0.352 0.059-0.125 0.157-0.371 0.157-0.547-0-0.002-0-0.005-0-0.007 0-0.039 0.032-0.071 0.071-0.071 0.002 0 0.005 0 0.007 0l0.255 0.020c0.002-0 0.005-0 0.007-0 0.031 0 0.056 0.025 0.056 0.056 0 0.008-0.002 0.016-0.005 0.023-0.019 0.156-0.019 0.802-0.019 1.056 0 0.391 0.039 0.861 0.059 1.076 0 0.049-0.020 0.059-0.079 0.069l-0.215 0.039c-0.038 0.009-0.059-0.009-0.078-0.068-0.050-0.196-0.104-0.359-0.167-0.517-0.078-0.166-0.26-0.303-0.477-0.324-0.355-0.040-0.824-0.060-1.137-0.060z"></path>
    <path fill="#203468" style="fill: var(--color1, #203468)" d="M73.298 15.406c0 1.663 0.079 3.032 0.098 3.336 0.020 0.489 0.137 0.724 0.489 0.724h0.255c0.078 0 0.078 0.039 0.078 0.088v0.225c0 0.059 0 0.078-0.078 0.078-0.098 0-0.688-0.029-1.058-0.029-0.254 0-0.919 0.029-1.016 0.029-0.039 0-0.059-0.019-0.059-0.088v-0.244c0.002-0.032 0.027-0.057 0.059-0.059h0.333c0.254 0 0.391-0.215 0.438-0.813 0.010-0.176 0.069-1.546 0.069-3.111v-1.243c0-0.587-0.332-1.037-0.763-1.037h-0.313c-0.033-0.002-0.059-0.029-0.059-0.062 0-0.002 0-0.004 0-0.006l-0-0.264c-0-0.002-0.001-0.005-0.001-0.007 0-0.029 0.023-0.052 0.052-0.052 0.003 0 0.005 0 0.008 0.001 0.049-0 0.125 0.009 0.303 0.019s0.438 0.010 0.871 0.010c0.166 0 0.313-0.010 0.431-0.020 0.125 0 0.215-0.009 0.274-0.009 0.008-0.001 0.017-0.001 0.026-0.001 0.082 0 0.156 0.034 0.208 0.089 0.098 0.098 2.015 2.505 2.211 2.778 0.136 0.157 1.662 2.054 1.819 2.25h0.039v-1.017c0-0.861 0-1.349-0.020-1.839-0.020-0.375-0.059-1.331-0.108-1.497-0.067-0.219-0.267-0.375-0.504-0.375-0.005 0-0.010 0-0.015 0l-0.312-0c-0.059 0-0.059-0.039-0.059-0.088v-0.225c0-0.059 0-0.078 0.079-0.078 0.118 0 0.43 0.029 1.096 0.029 0.587 0 0.822-0.029 0.938-0.029 0.078 0 0.098 0.039 0.098 0.068v0.226c0 0.059-0.020 0.098-0.059 0.098h-0.272c-0.196 0-0.294 0.157-0.324 0.518-0.048 0.666-0.146 2.309-0.146 3.307v2.582c0 0.137 0 0.274-0.118 0.274-0.132-0.007-0.249-0.066-0.332-0.157-0.078-0.098-0.607-0.705-1.213-1.429-0.688-0.841-1.448-1.761-1.563-1.917-0.138-0.137-1.703-2.094-1.819-2.231h-0.059v1.194z"></path>
    <path fill="#203468" style="fill: var(--color1, #203468)" d="M86.355 18.859c0 0.137 0.039 0.234 0.039 0.313s-0.059 0.117-0.156 0.157c-0.802 0.411-1.604 0.646-2.778 0.646-0.959 0-2.152-0.333-2.817-1.135-0.606-0.665-0.9-1.506-0.9-2.661 0.003-0.98 0.432-1.859 1.112-2.462 0.708-0.628 1.608-0.962 2.782-0.962 0.938 0 1.683 0.294 1.996 0.529 0.118 0.088 0.176 0.059 0.235-0.020l0.118-0.157c0.048-0.068 0.078-0.098 0.136-0.098 0.098 0 0.118 0.059 0.118 0.137l0.097 1.956c0 0.078 0 0.125-0.039 0.137l-0.235 0.039c-0.059 0.010-0.078-0.020-0.097-0.078-0.137-0.391-0.392-0.938-0.782-1.349-0.403-0.424-0.971-0.688-1.601-0.688-0.008 0-0.017 0-0.025 0-0.605 0-1.134 0.156-1.662 0.763-0.469 0.528-0.802 1.349-0.802 2.211 0 1.154 0.313 2.152 0.88 2.719 0.47 0.449 0.938 0.665 1.563 0.665s1-0.078 1.33-0.254c0.215-0.118 0.235-0.392 0.235-0.9v-0.71c0-0.352-0.097-0.449-0.353-0.449h-0.411c-0.001 0-0.003 0-0.004 0-0.041 0-0.075-0.034-0.075-0.075 0-0.005 0-0.009 0.001-0.014l-0-0.225c0-0.059 0.020-0.078 0.059-0.078 0.118 0 0.588 0.029 1.39 0.029 0.822 0 1.154-0.029 1.25-0.029 0.078 0 0.097 0.019 0.097 0.068v0.242c0.002 0.006 0.003 0.012 0.003 0.018 0 0.035-0.028 0.063-0.063 0.063-0.007 0-0.013-0.001-0.019-0.003l-0.332 0c-0.176 0-0.294 0.078-0.294 0.362v1.292z"></path>
    <path fill="#203468" style="fill: var(--color1, #203468)" d="M89.596 16.657c0 0.098 0.019 2.348 0.019 2.455 0 0.313 0.157 0.352 0.392 0.352h0.411c0.003-0 0.006-0.001 0.009-0.001 0.038 0 0.069 0.031 0.069 0.069v0.244c0 0.059-0.039 0.078-0.098 0.078-0.118 0-0.509-0.029-1.429-0.029-0.978 0-1.408 0.029-1.506 0.029-0.059 0-0.079-0.019-0.079-0.068v-0.264c0-0.039 0.020-0.059 0.079-0.059h0.391c0.196 0 0.411-0.020 0.449-0.283 0.020-0.137 0.039-2.25 0.039-2.779v-0.688c0-0.234-0.020-1.996-0.029-2.125-0.029-0.234-0.125-0.332-0.401-0.332h-0.509c-0.059 0-0.078-0.020-0.078-0.068v-0.252c-0.001-0.004-0.002-0.009-0.002-0.013 0-0.030 0.025-0.055 0.055-0.055 0.002 0 0.004 0 0.006 0 0.118-0 0.625 0.029 1.584 0.029 0.938 0 1.25-0.029 1.39-0.029 0.001-0 0.003-0 0.004-0 0.041 0 0.074 0.033 0.074 0.074 0 0.005-0 0.010-0.001 0.014l0 0.23c0 0.002 0 0.005 0 0.007 0 0.039-0.032 0.071-0.071 0.071-0.002 0-0.005-0-0.007-0l-0.375 0c-0.215 0-0.375 0.078-0.375 0.264 0 0.098-0.019 2.25-0.019 2.367v0.763z"></path>
    <path fill="#203468" style="fill: var(--color1, #203468)" d="M92.536 15.406c0 1.663 0.078 3.032 0.097 3.336 0.020 0.489 0.137 0.724 0.489 0.724h0.252c0.079 0 0.079 0.039 0.079 0.088v0.225c0 0.059 0 0.078-0.079 0.078-0.097 0-0.684-0.029-1.056-0.029-0.255 0-0.919 0.029-1.017 0.029-0.039 0-0.059-0.019-0.059-0.088v-0.244c0.002-0.032 0.027-0.057 0.059-0.059h0.333c0.255 0 0.392-0.215 0.441-0.813 0.009-0.176 0.068-1.546 0.068-3.111v-1.243c0-0.587-0.332-1.037-0.763-1.037h-0.313c-0.033-0.002-0.059-0.029-0.059-0.062 0-0.002 0-0.004 0-0.006l-0-0.264c-0-0.002-0.001-0.005-0.001-0.008 0-0.028 0.023-0.051 0.051-0.051 0.003 0 0.006 0 0.008 0.001 0.048-0 0.125 0.009 0.303 0.019s0.438 0.010 0.871 0.010c0.166 0 0.313-0.010 0.43-0.020 0.125 0 0.215-0.009 0.274-0.009 0.008-0.001 0.017-0.001 0.026-0.001 0.082 0 0.157 0.034 0.21 0.089 0.098 0.098 2.015 2.504 2.21 2.778 0.138 0.157 1.664 2.054 1.82 2.25h0.040v-1.017c0-0.861 0-1.349-0.020-1.839-0.019-0.375-0.059-1.331-0.108-1.497-0.067-0.219-0.267-0.375-0.503-0.375-0.005 0-0.010 0-0.016 0l-0.312-0c-0.059 0-0.059-0.039-0.059-0.088v-0.225c0-0.059 0-0.078 0.078-0.078 0.118 0 0.431 0.029 1.096 0.029 0.588 0 0.823-0.029 0.938-0.029 0.078 0 0.097 0.039 0.097 0.068v0.226c0 0.059-0.019 0.098-0.059 0.098h-0.274c-0.196 0-0.293 0.157-0.323 0.518-0.049 0.666-0.147 2.309-0.147 3.307v2.582c0 0.137 0 0.274-0.118 0.274-0.132-0.007-0.249-0.066-0.333-0.157-0.078-0.098-0.607-0.705-1.213-1.429-0.688-0.841-1.448-1.761-1.563-1.917-0.136-0.137-1.702-2.094-1.819-2.231h-0.059v1.194z"></path>
    <path fill="#203468" style="fill: var(--color1, #203468)" d="M101.25 16.99c0.009 0.528 0.029 1.487 0.029 1.663 0 0.509 0.176 0.704 0.391 0.763 0.208 0.050 0.447 0.079 0.693 0.079 0.025 0 0.050-0 0.074-0.001 0.172 0 0.621-0.020 0.818-0.039 0.176-0.020 0.547-0.118 0.802-0.333 0.176-0.156 0.724-0.802 0.909-1.037 0.039-0.049 0.069-0.059 0.108-0.039l0.156 0.098c0.019 0.013 0.032 0.035 0.032 0.060 0 0.014-0.004 0.028-0.011 0.039l-0.47 1.467c-0.027 0.086-0.105 0.147-0.198 0.147-0.006 0-0.012-0-0.017-0.001-0.047 0-0.263-0.009-0.87-0.019-0.616 0-1.625-0.010-3.257-0.010-0.362 0-0.625 0.010-0.831 0.010-0.196 0.009-0.333 0.019-0.421 0.019-0.005 0.002-0.011 0.003-0.018 0.003-0.035 0-0.063-0.028-0.063-0.063 0-0.006 0.001-0.013 0.003-0.019l-0-0.234c0-0.059 0.019-0.078 0.097-0.078h0.333c0.449 0 0.489-0.059 0.489-0.421v-3.287c0-0.803-0.021-2.015-0.039-2.152-0.039-0.264-0.137-0.342-0.431-0.342h-0.375c-0.001 0-0.003 0-0.005 0-0.031 0-0.056-0.025-0.056-0.056 0-0.005 0.001-0.009 0.002-0.013l-0-0.257c0-0.049 0.010-0.068 0.059-0.068 0.215 0 0.568 0.039 1.37 0.029h0.274c0.43 0 2.681-0.020 3.111-0.020 0.157 0 0.342-0.009 0.392-0.009 0.003-0.001 0.007-0.001 0.010-0.001 0.034 0 0.063 0.026 0.067 0.059 0.039 0.125 0.411 1.458 0.45 1.555 0.020 0.059 0.009 0.088-0.029 0.107l-0.176 0.078c-0.006 0.002-0.012 0.002-0.018 0.002-0.033 0-0.060-0.021-0.070-0.051-0.040-0.059-0.841-0.959-1.076-1.096-0.205-0.117-0.469-0.244-0.743-0.255l-1.487-0.039-0.015 2.832c0.293 0 1-0.020 1.115-0.049 0.215-0.039 0.332-0.117 0.45-0.352 0.059-0.125 0.156-0.371 0.156-0.547-0-0.002-0-0.004-0-0.007 0-0.040 0.032-0.072 0.072-0.072 0.002 0 0.005 0 0.007 0l0.255 0.020c0.002-0 0.004-0 0.006-0 0.031 0 0.057 0.025 0.057 0.057 0 0.008-0.002 0.015-0.004 0.022-0.020 0.156-0.020 0.802-0.020 1.056 0 0.391 0.039 0.861 0.059 1.076 0 0.049-0.020 0.059-0.078 0.069l-0.215 0.039c-0.039 0.009-0.059-0.009-0.078-0.068-0.050-0.197-0.104-0.36-0.167-0.518-0.077-0.165-0.26-0.302-0.477-0.323-0.356-0.040-0.824-0.060-1.137-0.060z"></path>
    <path fill="#203468" style="fill: var(--color1, #203468)" d="M107.801 16.99c0.009 0.528 0.029 1.487 0.029 1.663 0 0.509 0.176 0.704 0.391 0.763 0.208 0.050 0.447 0.079 0.693 0.079 0.025 0 0.049-0 0.074-0.001 0.172 0 0.621-0.020 0.818-0.039 0.176-0.020 0.547-0.118 0.802-0.333 0.176-0.156 0.724-0.802 0.91-1.037 0.039-0.049 0.068-0.059 0.107-0.039l0.157 0.098c0.019 0.013 0.032 0.035 0.032 0.059 0 0.015-0.004 0.028-0.012 0.039l-0.469 1.467c-0.027 0.086-0.105 0.147-0.198 0.147-0.006 0-0.012-0-0.017-0.001-0.048 0-0.264-0.009-0.871-0.019-0.616 0-1.625-0.010-3.257-0.010-0.362 0-0.625 0.010-0.832 0.010-0.196 0.009-0.332 0.019-0.421 0.019-0.005 0.002-0.012 0.003-0.018 0.003-0.035 0-0.063-0.028-0.063-0.063 0-0.007 0.001-0.013 0.003-0.019l-0-0.234c0-0.059 0.020-0.078 0.097-0.078h0.333c0.45 0 0.489-0.059 0.489-0.421v-3.287c0-0.803-0.020-2.015-0.039-2.152-0.039-0.264-0.138-0.342-0.431-0.342h-0.375c-0.002 0-0.004 0-0.005 0-0.030 0-0.055-0.025-0.055-0.055 0-0.005 0.001-0.009 0.002-0.014l-0-0.257c0-0.049 0.009-0.068 0.059-0.068 0.215 0 0.567 0.039 1.369 0.029h0.274c0.431 0 2.681-0.020 3.111-0.020 0.157 0 0.343-0.009 0.392-0.009 0.003-0.001 0.007-0.001 0.011-0.001 0.035 0 0.063 0.026 0.068 0.059 0.039 0.125 0.411 1.458 0.449 1.555 0.020 0.059 0.010 0.088-0.029 0.107l-0.176 0.078c-0.006 0.002-0.012 0.002-0.018 0.002-0.033 0-0.060-0.021-0.070-0.051-0.040-0.059-0.842-0.959-1.076-1.096-0.205-0.117-0.469-0.244-0.743-0.255l-1.487-0.039-0.017 2.832c0.293 0 1-0.020 1.114-0.049 0.215-0.039 0.332-0.117 0.45-0.352 0.059-0.125 0.156-0.371 0.156-0.547-0-0.002-0-0.004-0-0.007 0-0.040 0.032-0.072 0.072-0.072 0.003 0 0.005 0 0.007 0l0.254 0.020c0.002-0 0.004-0 0.006-0 0.031 0 0.057 0.025 0.057 0.057 0 0.008-0.002 0.015-0.004 0.022-0.020 0.156-0.020 0.802-0.020 1.056 0 0.391 0.039 0.861 0.059 1.076 0 0.049-0.019 0.059-0.078 0.069l-0.215 0.039c-0.039 0.009-0.059-0.009-0.078-0.068-0.049-0.195-0.103-0.358-0.166-0.517-0.078-0.167-0.261-0.304-0.477-0.325-0.355-0.040-0.824-0.060-1.137-0.060z"></path>
    <path fill="#203468" style="fill: var(--color1, #203468)" d="M123.921 15.406c0 1.663 0.078 3.032 0.098 3.336 0.019 0.489 0.136 0.724 0.489 0.724h0.254c0.078 0 0.078 0.039 0.078 0.088v0.225c0 0.059 0 0.078-0.078 0.078-0.097 0-0.688-0.029-1.057-0.029-0.254 0-0.919 0.029-1.017 0.029-0.039 0-0.059-0.019-0.059-0.088v-0.244c0.002-0.032 0.027-0.057 0.059-0.059h0.333c0.254 0 0.392-0.215 0.438-0.813 0.010-0.176 0.069-1.546 0.069-3.111v-1.243c0-0.587-0.332-1.037-0.763-1.037h-0.313c-0.033-0.002-0.059-0.029-0.059-0.062 0-0.002 0-0.004 0-0.006l-0-0.264c-0-0.002-0.001-0.005-0.001-0.007 0-0.029 0.023-0.052 0.052-0.052 0.003 0 0.005 0 0.008 0.001 0.048-0 0.125 0.009 0.303 0.019s0.441 0.010 0.871 0.010c0.166 0 0.313-0.010 0.43-0.020 0.125 0 0.215-0.009 0.274-0.009 0.008-0.001 0.017-0.001 0.026-0.001 0.082 0 0.156 0.034 0.209 0.089 0.098 0.098 2.015 2.504 2.211 2.778 0.137 0.157 1.663 2.054 1.819 2.25h0.039v-1.017c0-0.861 0-1.349-0.021-1.839-0.019-0.375-0.059-1.331-0.107-1.497-0.067-0.219-0.267-0.375-0.504-0.375-0.005 0-0.010 0-0.015 0l-0.312-0c-0.059 0-0.059-0.039-0.059-0.088v-0.225c0-0.059 0-0.078 0.078-0.078 0.118 0 0.43 0.029 1.096 0.029 0.587 0 0.822-0.029 0.938-0.029 0.077 0 0.097 0.039 0.097 0.068v0.226c0 0.059-0.020 0.098-0.059 0.098h-0.268c-0.196 0-0.294 0.157-0.323 0.518-0.048 0.666-0.146 2.309-0.146 3.307v2.582c0 0.137 0 0.274-0.118 0.274-0.132-0.007-0.249-0.066-0.333-0.157-0.078-0.098-0.607-0.705-1.213-1.429-0.684-0.841-1.447-1.761-1.563-1.917-0.137-0.137-1.703-2.094-1.819-2.231h-0.059v1.194z"></path>
    <path fill="#203468" style="fill: var(--color1, #203468)" d="M136.796 18.859c0 0.137 0.039 0.234 0.039 0.313s-0.059 0.117-0.156 0.157c-0.803 0.411-1.605 0.646-2.779 0.646-0.959 0-2.152-0.333-2.817-1.135-0.606-0.665-0.901-1.506-0.901-2.661 0.003-0.98 0.432-1.859 1.112-2.462 0.708-0.628 1.607-0.962 2.782-0.962 0.938 0 1.683 0.294 1.996 0.529 0.118 0.088 0.176 0.059 0.235-0.020l0.118-0.157c0.049-0.068 0.078-0.098 0.137-0.098 0.097 0 0.118 0.059 0.118 0.137l0.097 1.956c0 0.078 0 0.125-0.039 0.137l-0.235 0.039c-0.059 0.010-0.078-0.020-0.098-0.078-0.137-0.391-0.391-0.938-0.782-1.349-0.403-0.424-0.971-0.688-1.601-0.688-0.008 0-0.017 0-0.025 0-0.606 0-1.134 0.156-1.662 0.763-0.47 0.528-0.803 1.349-0.803 2.211 0 1.154 0.313 2.152 0.88 2.719 0.47 0.449 0.938 0.665 1.563 0.665s1-0.078 1.331-0.254c0.215-0.118 0.235-0.392 0.235-0.9v-0.71c0-0.352-0.098-0.449-0.353-0.449h-0.41c-0.001 0-0.003 0-0.005 0-0.041 0-0.075-0.034-0.075-0.075 0-0.005 0-0.009 0.001-0.014l-0-0.225c0-0.059 0.021-0.078 0.059-0.078 0.118 0 0.587 0.029 1.389 0.029 0.822 0 1.154-0.029 1.25-0.029 0.078 0 0.098 0.019 0.098 0.068v0.242c0.002 0.006 0.003 0.012 0.003 0.019 0 0.035-0.028 0.063-0.063 0.063-0.007 0-0.013-0.001-0.020-0.003l-0.332 0c-0.176 0-0.293 0.078-0.293 0.362v1.292z"></path>
    <path fill="#203468" style="fill: var(--color1, #203468)" d="M121.804 19.465h-0.411c-0.235 0-0.391-0.039-0.391-0.352 0-0.108-0.021-2.357-0.021-2.455v-0.763c0-0.118 0.021-2.27 0.021-2.367 0-0.188 0.156-0.264 0.371-0.264h0.375c0.002 0 0.004 0 0.007 0 0.040 0 0.072-0.032 0.072-0.072 0-0.002-0-0.005-0-0.007l0-0.225c0.001-0.004 0.001-0.009 0.001-0.013 0-0.041-0.034-0.075-0.075-0.075-0.001 0-0.003 0-0.004 0-0.137 0-0.45 0.029-1.389 0.029-0.959 0-1.468-0.029-1.584-0.029-0.002-0-0.004-0-0.005-0-0.030 0-0.055 0.025-0.055 0.055 0 0.005 0.001 0.009 0.002 0.014l-0 0.255c0 0.048 0.019 0.068 0.078 0.068h0.509c0.274 0 0.371 0.098 0.401 0.332 0.010 0.125 0.029 1.888 0.029 2.125v0.687c0 0.529-0.019 2.642-0.038 2.779-0.039 0.264-0.255 0.283-0.45 0.283h-0.448c-0.227 0-0.49-0.008-0.668-0.166-0.147-0.137-0.773-1.017-0.832-1.115-0.078-0.117-0.688-1.037-0.802-1.194-0.146-0.202-0.346-0.357-0.578-0.446l-0.009-0.048c1.076-0.176 1.819-0.688 1.819-1.917 0-0.375-0.176-0.783-0.529-1.096-0.391-0.352-1-0.616-1.78-0.616-0.294 0-1.194 0.029-1.741 0.029-0.959 0-1.272-0.029-1.341-0.029-0.003-0.001-0.007-0.001-0.011-0.001-0.032 0-0.058 0.026-0.058 0.058 0 0.004 0 0.008 0.001 0.011l-0 0.264c-0 0.001-0 0.003-0 0.005 0 0.031 0.025 0.056 0.056 0.056 0.004 0 0.009-0.001 0.013-0.002l0.382 0c0.176 0 0.313 0.157 0.313 0.489v2.573c0 0.919 0 1.839-0.020 2.817 0 0.264-0.156 0.323-0.371 0.323h-0.333c-0.034 0.001-0.061 0.029-0.061 0.062 0 0.006 0.001 0.011 0.002 0.016l-0 0.225c-0.001 0.005-0.002 0.011-0.002 0.018 0 0.039 0.032 0.071 0.071 0.071 0.003 0 0.007-0 0.010-0.001 0.097 0 0.332-0.029 1.291-0.029 1.017 0 1.213 0.029 1.34 0.029 0.078 0 0.108-0.019 0.108-0.088v-0.235c0-0.002 0-0.005 0-0.008 0-0.035-0.028-0.063-0.063-0.063-0.006 0-0.011 0.001-0.017 0.002l-0.489-0c-0.156 0-0.225-0.176-0.254-0.375-0.020-0.146-0.039-1.242-0.039-1.829v-0.528c0.108-0.010 0.274-0.020 0.313-0.020 0.411 0 0.636 0.264 0.88 0.606 0.157 0.215 0.431 0.666 0.529 0.841 0.088 0.157 0.469 0.861 0.646 1.135 0.125 0.205 0.313 0.469 0.43 0.558 0.215-0.009 0.587-0.029 0.861-0.029h2.495c0.919 0 1.313 0.029 1.428 0.029 0.059 0 0.098-0.019 0.098-0.078v-0.244c-0.002-0.037-0.032-0.066-0.069-0.066-0.004 0-0.007 0-0.010 0.001zM114.593 16.422c-0.135-0.005-0.263-0.019-0.388-0.041l0.037-2.815c0-0.117 0.039-0.234 0.118-0.283s0.196-0.059 0.353-0.059c0.489 0 0.938 0.107 1.291 0.421 0.244 0.225 0.431 0.646 0.431 1.096s-0.314 1.682-1.841 1.682z"></path>
</svg>
